<?xml version="1.0" encoding="utf-8"?>
<!-- Generator: Adobe Illustrator 19.0.0, SVG Export Plug-In . SVG Version: 6.00 Build 0)  -->
<svg version="1.1" id="Layer_1" xmlns="http://www.w3.org/2000/svg" xmlns:xlink="http://www.w3.org/1999/xlink" x="0px" y="0px"
	 viewBox="0 0 612 792" style="enable-background:new 0 0 612 792;" xml:space="preserve">
<style type="text/css">
	.st0{fill:#3F59A6;}
</style>
<path id="XMLID_21_" class="st0" d="M310.1,404.6v-3.5c0-0.8-0.2-1.1-0.7-1.1c-0.3,0-0.5,0.1-0.7,0.4v5.1c0.2,0.2,0.5,0.4,0.7,0.4
	C309.9,405.8,310.1,405.4,310.1,404.6L310.1,404.6z M314.3,401.9h1.5v-0.8c0-0.8-0.2-1.2-0.7-1.2s-0.7,0.4-0.7,1.2V401.9z
	 M301.4,395.9v1.6h-1.8v9.5h-1.7v-9.5h-1.8v-1.6H301.4L301.4,395.9z M305.9,398.7v8.3h-1.5v-0.9c-0.6,0.7-1.2,1-1.7,1
	c-0.5,0-0.8-0.2-0.9-0.6c-0.1-0.2-0.1-0.6-0.1-1.2v-6.5h1.5v6.1c0,0.4,0,0.6,0,0.6c0,0.2,0.1,0.3,0.3,0.3c0.3,0,0.6-0.2,0.9-0.7
	v-6.3H305.9L305.9,398.7z M311.6,401.2v3.3c0,0.8-0.1,1.3-0.2,1.6c-0.2,0.6-0.6,0.9-1.2,0.9c-0.5,0-1-0.3-1.5-0.9v0.8h-1.5v-11.1
	h1.5v3.6c0.5-0.6,1-0.9,1.5-0.9c0.6,0,1,0.3,1.2,0.9C311.6,399.9,311.6,400.4,311.6,401.2z M317.3,404.2v0.2c0,0.4,0,0.8,0,1
	c0,0.3-0.2,0.6-0.3,0.9c-0.4,0.6-1,0.9-1.8,0.9c-0.8,0-1.4-0.3-1.8-0.9c-0.3-0.4-0.5-1.1-0.5-1.9v-2.9c0-0.9,0.2-1.5,0.5-1.9
	c0.4-0.6,1-0.9,1.8-0.9s1.4,0.3,1.8,0.9c0.3,0.4,0.5,1.1,0.5,1.9v1.7h-3v1.5c0,0.8,0.3,1.2,0.8,1.2c0.4,0,0.6-0.2,0.7-0.6
	c0,0,0-0.1,0-0.2c0-0.1,0-0.2,0-0.4v-0.5H317.3L317.3,404.2z M307.1,385.6v3.5c0,0.8-0.2,1.2-0.7,1.2s-0.7-0.4-0.7-1.2v-3.5
	c0-0.8,0.2-1.2,0.7-1.2S307.1,384.8,307.1,385.6z M319.1,401.6c0-2.7-0.1-4.6-0.4-5.9c-0.2-0.7-0.5-1.2-1-1.7
	c-0.5-0.4-1.1-0.7-1.7-0.8c-2-0.2-5.1-0.3-9.3-0.3c-4.1,0-7.2,0.1-9.3,0.3c-0.7,0.1-1.2,0.3-1.7,0.8c-0.5,0.4-0.8,1-1,1.7
	c-0.3,1.3-0.5,3.3-0.5,5.9c0,2.6,0.2,4.6,0.5,5.9c0.2,0.6,0.5,1.2,1,1.6c0.5,0.5,1.1,0.7,1.7,0.8c2.1,0.2,5.2,0.3,9.3,0.3
	c4.1,0,7.2-0.1,9.3-0.3c0.6-0.1,1.2-0.3,1.7-0.8c0.5-0.5,0.8-1,1-1.6C319,406.2,319.1,404.3,319.1,401.6z M302.1,387l2-6.7h-1.7
	l-1.2,4.4l-1.2-4.4h-1.8l0.5,1.6c0,0,0.2,0.5,0.5,1.6c0.5,1.5,0.9,2.7,1,3.6v4.5h1.7V387L302.1,387z M308.6,388.8v-2.9
	c0-0.9-0.2-1.5-0.5-2c-0.4-0.6-1-0.9-1.8-0.9c-0.8,0-1.4,0.3-1.8,0.9c-0.3,0.4-0.5,1.1-0.5,2v2.9c0,0.9,0.2,1.5,0.5,2
	c0.4,0.6,1,0.9,1.8,0.9c0.7,0,1.3-0.3,1.8-0.9C308.5,390.3,308.6,389.7,308.6,388.8z M312.7,391.5h1.5v-8.3h-1.5v6.4
	c-0.3,0.5-0.6,0.7-0.9,0.7c-0.2,0-0.3-0.1-0.4-0.4c0,0,0-0.2,0-0.6v-6.1h-1.5v6.6c0,0.6,0,1,0.1,1.2c0.2,0.4,0.5,0.6,1,0.6
	c0.5,0,1.1-0.3,1.7-1V391.5L312.7,391.5z"/>
</svg>
